<svg width="45" height="46" viewBox="0 0 45 46" fill="none" xmlns="http://www.w3.org/2000/svg">
<circle cx="22.315" cy="23.2406" r="22.3154" fill="#F1EDFD"/>
<path d="M21.1425 8.65092C19.6881 8.89166 18.3881 9.63683 17.3705 10.8004C16.2517 12.0787 15.671 13.5575 15.5911 15.3287C15.4792 17.8049 16.6087 20.1723 18.5586 21.5422C19.5176 22.2186 20.4393 22.5625 21.5581 22.66C23.6306 22.8319 25.3994 22.1326 26.8272 20.5678C27.962 19.3297 28.5374 17.9769 28.6759 16.2516C28.8677 13.9473 28.0579 11.8035 26.4436 10.3017C25.3994 9.33876 24.4404 8.85727 23.1138 8.65092C22.4745 8.55347 21.7286 8.54774 21.1425 8.65092Z" fill="#0A081D"/>
<path d="M16.3056 22.7861C13.8975 23.0612 12.2246 24.9184 11.4468 28.1971C10.93 30.381 10.7968 33.0062 11.1271 34.445C11.3988 35.5971 12.2886 36.7664 13.3168 37.3282C13.7803 37.5804 14.4463 37.7867 15.0057 37.8555C15.336 37.9014 17.8507 37.9128 22.6616 37.9014L29.8273 37.8842L30.2801 37.7466C31.9637 37.2537 33.1145 36.0385 33.5354 34.3303C33.7538 33.4419 33.7272 31.321 33.4714 29.6473C32.912 25.9215 31.4949 23.686 29.2519 22.9867C28.7404 22.8262 27.8241 22.7058 27.5524 22.7631C27.2913 22.8147 26.929 23.0211 26.1086 23.5885C25.2348 24.1961 25.1123 24.2649 24.457 24.5286C23.7005 24.8324 23.0771 24.9642 22.3472 24.9642C21.6013 24.9642 21.026 24.8496 20.2694 24.563C19.5555 24.2878 19.5235 24.2707 18.4047 23.5083C17.8187 23.1071 17.3818 22.8491 17.2113 22.7975C16.913 22.7173 16.913 22.7173 16.3056 22.7861Z" fill="#0A081D"/>
</svg>
