<svg width="61" height="107" viewBox="0 0 61 107" fill="none" xmlns="http://www.w3.org/2000/svg">
<path d="M50.7094 1.07352C49.8595 1.32534 44.1305 6.834 25.6215 25.3431C11.6452 39.2564 1.38336 49.7386 1.10006 50.3681C0.344589 51.9106 0.187199 53.9252 0.65937 55.6564C1.03711 57.073 2.64249 58.7413 25.0234 81.1537C38.9367 95.1299 49.4188 105.392 50.0484 105.675C52.9759 107.06 56.0607 106.493 58.4216 104.101C60.6565 101.866 61.2546 99.5368 60.4047 96.5464C60.0899 95.4447 57.1939 92.3913 39.2514 74.3859L18.4445 53.5474L39.2514 32.6775C57.1939 14.7035 60.0899 11.6501 60.4047 10.5484C61.2546 7.558 60.6565 5.22862 58.4216 3.02515C56.2181 0.821693 53.6999 0.160652 50.7094 1.07352Z" fill="#453F64"/>
</svg>
