<svg width="61" height="107" viewBox="0 0 61 107" fill="none" xmlns="http://www.w3.org/2000/svg">
<path d="M5.23327 1.03394C4.63496 1.22288 3.40685 2.10459 2.55663 2.98631C0.320847 5.1906 -0.277461 7.52085 0.572766 10.5124C0.887664 11.6145 3.78473 14.6691 21.734 32.6498L42.5488 53.5275L21.734 74.3738C3.78473 92.386 0.887664 95.4406 0.572766 96.5427C-0.277461 99.5342 0.320847 101.864 2.55663 104.1C4.91837 106.494 8.00437 107.06 10.9329 105.675C11.5627 105.391 22.0489 95.1257 35.9674 81.1442C58.3567 58.7234 59.9627 57.0544 60.3405 55.6374C60.8129 53.9054 60.6554 51.8901 59.8997 50.3471C59.6163 49.7173 49.3506 39.2626 35.3691 25.3126C14.6172 4.5608 11.1848 1.31734 10.0827 1.00245C8.50821 0.561584 6.71329 0.561584 5.23327 1.03394Z" fill="#453F64"/>
</svg>
