<svg width="52" height="52" viewBox="0 0 52 52" fill="none" xmlns="http://www.w3.org/2000/svg">
<path d="M23.7201 1.09848C18.3379 1.60685 13.1858 3.73562 9.16424 7.11412C8.22386 7.89785 6.43314 9.75126 5.66283 10.7362C3.69205 13.2251 2.0814 16.5083 1.37112 19.4631C0.880921 21.5178 0.770877 22.4921 0.780881 24.7586C0.780881 27.6181 1.05099 29.3444 1.86131 31.8015C2.72166 34.4387 3.99217 36.7687 5.8229 39.0669C6.5832 40.0307 6.5832 40.0519 6.71325 40.9097C7.09341 43.5257 6.29309 46.4064 4.5724 48.5881C3.68204 49.7108 3.56199 50.1132 3.89213 50.8864C4.05219 51.2676 4.18224 51.4159 4.5724 51.6065C5.04259 51.8501 5.0726 51.8607 6.45315 51.7336C10.2347 51.3947 13.3059 49.9967 16.3271 47.2643L16.6872 46.9359L17.8277 47.3066C22.6896 48.9164 28.2119 49.0541 33.3039 47.6985C41.7773 45.432 48.57 39.0881 50.961 31.219C52.7217 25.394 52.0414 19.2937 49.0302 13.9029C47.3395 10.8633 44.5684 7.8343 41.6272 5.79026C36.4652 2.21053 29.9926 0.515984 23.7201 1.09848ZM15.2267 20.1515C17.5776 20.6281 19.2183 23.064 18.8381 25.5105C18.518 27.5864 17.0374 29.1538 15.0766 29.4927C12.1854 30.0011 9.51438 27.1733 9.99457 24.1125C10.4147 21.4436 12.7657 19.6643 15.2267 20.1515ZM27.2315 20.1515C29.5824 20.6281 31.2231 23.064 30.8429 25.5105C30.5228 27.5864 29.0422 29.1538 27.0814 29.4927C24.1903 30.0011 21.5192 27.1733 21.9994 24.1125C22.4195 21.4436 24.7705 19.6643 27.2315 20.1515ZM39.2363 20.1515C41.5872 20.6281 43.2279 23.064 42.8477 25.5105C42.5276 27.5864 41.047 29.1538 39.0862 29.4927C36.1951 30.0011 33.524 27.1733 34.0042 24.1125C34.4243 21.4436 36.7753 19.6643 39.2363 20.1515Z" fill="#F1EDFD"/>
</svg>
