<svg width="38" height="38" viewBox="0 0 38 38" fill="none" xmlns="http://www.w3.org/2000/svg">
<path d="M2.08901 24.3911C1.55303 24.1561 1.42115 23.4556 1.83497 23.0417L5.50918 19.3675C5.75136 19.1253 6.11727 19.0565 6.43094 19.194L14.9555 22.9317C15.1467 23.0155 15.2993 23.1681 15.3831 23.3592L19.1208 31.8838C19.2583 32.1975 19.1894 32.5634 18.9472 32.8056L15.273 36.4798C14.8592 36.8936 14.1587 36.7617 13.9237 36.2258L10.4467 28.2957C10.3629 28.1045 10.2103 27.9519 10.0191 27.8681L2.08901 24.3911Z" fill="#F1EDFD"/>
<path d="M24.7727 36.2258C24.5377 36.7618 23.8372 36.8937 23.4233 36.4798L19.7491 32.8056C19.5069 32.5635 19.438 32.1975 19.5756 31.8839L23.3132 23.3593C23.3971 23.1681 23.5497 23.0155 23.7408 22.9317L32.2654 19.194C32.5791 19.0565 32.945 19.1254 33.1872 19.3676L36.8614 23.0418C37.2752 23.4556 37.1433 24.1561 36.6073 24.3911L28.6772 27.8681C28.4861 27.9519 28.3335 28.1046 28.2497 28.2957L24.7727 36.2258Z" fill="#F1EDFD"/>
<path d="M2.08901 13.5529C1.55303 13.7879 1.42115 14.4884 1.83497 14.9022L5.50918 18.5764C5.75136 18.8186 6.11727 18.8875 6.43094 18.75L14.9555 15.0123C15.1467 14.9285 15.2993 14.7759 15.3831 14.5847L19.1208 6.06014C19.2583 5.74647 19.1894 5.38056 18.9472 5.13838L15.273 1.46418C14.8592 1.05035 14.1587 1.18223 13.9237 1.71822L10.4467 9.64832C10.3629 9.83946 10.2103 9.99209 10.0191 10.0759L2.08901 13.5529Z" fill="#F1EDFD"/>
<path d="M24.7724 1.71829C24.5374 1.1823 23.8369 1.05042 23.4231 1.46425L19.7489 5.13845C19.5067 5.38063 19.4378 5.74654 19.5753 6.06021L23.313 14.5848C23.3968 14.7759 23.5494 14.9286 23.7406 15.0124L32.2652 18.7501C32.5788 18.8876 32.9448 18.8187 33.1869 18.5765L36.8611 14.9023C37.275 14.4885 37.1431 13.788 36.6071 13.553L28.677 10.076C28.4859 9.99216 28.3332 9.83953 28.2494 9.64838L24.7724 1.71829Z" fill="#F1EDFD"/>
</svg>
